<svg width="36" height="36" viewBox="0 0 36 36" fill="none" xmlns="http://www.w3.org/2000/svg">
<g clip-path="url(#clip0_160_40)">
<path d="M23.3438 6.46875C24.9848 6.46875 26.5586 7.12065 27.719 8.28103C28.8794 9.44141 29.5312 11.0152 29.5312 12.6562V23.3438C29.5312 24.9848 28.8794 26.5586 27.719 27.719C26.5586 28.8794 24.9848 29.5312 23.3438 29.5312H12.6562C11.0152 29.5312 9.44141 28.8794 8.28103 27.719C7.12065 26.5586 6.46875 24.9848 6.46875 23.3438V12.6562C6.46875 11.0152 7.12065 9.44141 8.28103 8.28103C9.44141 7.12065 11.0152 6.46875 12.6562 6.46875H23.3438ZM23.3438 4.21875H12.6562C10.4205 4.22543 8.27831 5.11652 6.69741 6.69741C5.11652 8.27831 4.22543 10.4205 4.21875 12.6562V23.3438C4.22543 25.5795 5.11652 27.7217 6.69741 29.3026C8.27831 30.8835 10.4205 31.7746 12.6562 31.7812H23.3438C25.5795 31.7746 27.7217 30.8835 29.3026 29.3026C30.8835 27.7217 31.7746 25.5795 31.7812 23.3438V12.6562C31.7746 10.4205 30.8835 8.27831 29.3026 6.69741C27.7217 5.11652 25.5795 4.22543 23.3438 4.21875Z" fill="white"/>
<path d="M25.3518 9C25.0331 9 24.7215 9.09452 24.4565 9.2716C24.1914 9.44868 23.9849 9.70037 23.8629 9.99484C23.7409 10.2893 23.709 10.6133 23.7712 10.926C23.8334 11.2386 23.9869 11.5257 24.2123 11.7511C24.4376 11.9765 24.7248 12.13 25.0374 12.1922C25.35 12.2543 25.674 12.2224 25.9685 12.1005C26.263 11.9785 26.5147 11.7719 26.6918 11.5069C26.8688 11.2419 26.9634 10.9303 26.9634 10.6116C26.9634 10.3999 26.9217 10.1904 26.8407 9.99484C26.7597 9.79932 26.641 9.62166 26.4913 9.47202C26.3417 9.32237 26.164 9.20366 25.9685 9.12267C25.773 9.04168 25.5634 9 25.3518 9Z" fill="white"/>
<path d="M18.0761 13.0696C19.0598 13.069 20.0216 13.3603 20.8397 13.9064C21.6579 14.4526 22.2957 15.2292 22.6724 16.1379C23.0491 17.0466 23.1478 18.0467 22.956 19.0115C22.7642 19.9763 22.2906 20.8626 21.595 21.5582C20.8994 22.2538 20.0132 22.7274 19.0483 22.9192C18.0835 23.111 17.0835 23.0122 16.1747 22.6355C15.266 22.2588 14.4894 21.6211 13.9433 20.8029C13.3971 19.9848 13.1059 19.023 13.1064 18.0393C13.1087 16.7219 13.633 15.4592 14.5645 14.5276C15.496 13.5961 16.7588 13.0718 18.0761 13.0696ZM18.0761 10.8196C16.6481 10.8224 15.253 11.2484 14.0671 12.0438C12.8811 12.8393 11.9576 13.9684 11.4132 15.2885C10.8687 16.6087 10.7279 18.0606 11.0084 19.4608C11.2889 20.8609 11.9781 22.1465 12.9891 23.1551C14 24.1637 15.2872 24.8499 16.688 25.1272C18.0889 25.4044 19.5404 25.2601 20.8593 24.7126C22.1782 24.1651 23.3051 23.239 24.0978 22.0512C24.8905 20.8634 25.3132 19.4673 25.3127 18.0393C25.3123 17.0899 25.1248 16.1498 24.7607 15.273C24.3967 14.3961 23.8634 13.5996 23.1913 12.929C22.5192 12.2585 21.7214 11.727 20.8437 11.3651C19.966 11.0031 19.0255 10.8177 18.0761 10.8196Z" fill="white"/>
</g>
<defs>
<clipPath id="clip0_160_40">
<rect width="36" height="36" fill="white"/>
</clipPath>
</defs>
</svg>
