<svg width="32" height="32" viewBox="0 0 32 32" fill="none" xmlns="http://www.w3.org/2000/svg">
<g clip-path="url(#clip0_160_47)">
<path fill-rule="evenodd" clip-rule="evenodd" d="M26.1199 6.10919C23.4946 3.48085 20.0033 2.03277 16.2836 2.03125C8.61927 2.03125 2.38132 8.26869 2.37833 15.9354C2.37726 18.3862 3.01757 20.7783 4.23445 22.887L2.26172 30.0925L9.63307 28.1589C11.664 29.2667 13.9508 29.8506 16.278 29.8514H16.2837C16.2841 29.8514 16.2833 29.8514 16.2838 29.8514C23.9473 29.8514 30.1856 23.6133 30.1889 15.9465C30.1902 12.231 28.7452 8.7374 26.1199 6.10919ZM16.2836 27.503H16.2789C14.2052 27.5022 12.1711 26.945 10.3966 25.892L9.97461 25.6416L5.60035 26.789L6.76795 22.5242L6.49313 22.0868C5.33624 20.2467 4.72523 18.1199 4.72614 15.9361C4.72862 9.56392 9.91337 4.37973 16.2883 4.37973C19.3753 4.38069 22.2771 5.58448 24.4592 7.76904C26.6412 9.95361 27.8422 12.8574 27.841 15.9455C27.8384 22.3183 22.6538 27.503 16.2836 27.503Z" fill="white"/>
<path fill-rule="evenodd" clip-rule="evenodd" d="M22.6843 18.7941C22.3369 18.6201 20.6287 17.7797 20.3102 17.6637C19.9918 17.5478 19.7601 17.4898 19.5285 17.8376C19.2969 18.1854 18.6311 18.968 18.4284 19.1999C18.2257 19.4317 18.023 19.4609 17.6756 19.2868C17.3282 19.1129 16.2087 18.7461 14.8816 17.5624C13.8487 16.641 13.1514 15.5033 12.9487 15.1554C12.7461 14.8077 12.9271 14.6196 13.1011 14.4464C13.2574 14.2906 13.4486 14.0406 13.6223 13.8377C13.796 13.6348 13.8539 13.4898 13.9697 13.2581C14.0855 13.0261 14.0277 12.8232 13.9408 12.6494C13.8539 12.4755 13.1591 10.7653 12.8696 10.0695C12.5874 9.39213 12.301 9.48391 12.0877 9.47313C11.8854 9.46303 11.6535 9.46094 11.4219 9.46094C11.1903 9.46094 10.8138 9.54792 10.4954 9.89567C10.1769 10.2435 9.2793 11.0842 9.2793 12.7942C9.2793 14.5044 10.5243 16.1565 10.698 16.3883C10.8717 16.6203 13.148 20.1296 16.6333 21.6346C17.4623 21.9926 18.1095 22.2064 18.614 22.3664C19.4463 22.6309 20.2038 22.5936 20.8024 22.5041C21.47 22.4044 22.8581 21.6636 23.1476 20.8521C23.4371 20.0405 23.4371 19.3447 23.3502 19.1999C23.2634 19.055 23.0317 18.968 22.6843 18.7941Z" fill="white"/>
</g>
<defs>
<clipPath id="clip0_160_47">
<rect width="32" height="32" fill="white"/>
</clipPath>
</defs>
</svg>
